<mxfile host="app.diagrams.net" modified="2023-10-12T00:30:58.389Z" agent="Mozilla/5.0 (Windows NT 10.0; Win64; x64) AppleWebKit/537.36 (KHTML, like Gecko) Chrome/117.0.0.0 Safari/537.36" etag="TJjGWDyZN9HPCRSqhgeE" version="22.0.4" type="github">
  <diagram id="C5RBs43oDa-KdzZeNtuy" name="Page-1">
    <mxGraphModel dx="794" dy="456" grid="1" gridSize="10" guides="1" tooltips="1" connect="1" arrows="1" fold="1" page="1" pageScale="1" pageWidth="827" pageHeight="1169" math="0" shadow="0">
      <root>
        <mxCell id="WIyWlLk6GJQsqaUBKTNV-0" />
        <mxCell id="WIyWlLk6GJQsqaUBKTNV-1" parent="WIyWlLk6GJQsqaUBKTNV-0" />
        <mxCell id="WIyWlLk6GJQsqaUBKTNV-3" value="Bienvenidos" style="rounded=1;whiteSpace=wrap;html=1;fontSize=12;glass=0;strokeWidth=1;shadow=0;" parent="WIyWlLk6GJQsqaUBKTNV-1" vertex="1">
          <mxGeometry x="40" width="120" height="40" as="geometry" />
        </mxCell>
        <mxCell id="WIyWlLk6GJQsqaUBKTNV-4" value="Yes" style="rounded=0;html=1;jettySize=auto;orthogonalLoop=1;fontSize=11;endArrow=block;endFill=0;endSize=7;strokeWidth=1;shadow=0;labelBackgroundColor=none;edgeStyle=orthogonalEdgeStyle;strokeColor=default;entryX=0.5;entryY=0;entryDx=0;entryDy=0;" parent="WIyWlLk6GJQsqaUBKTNV-1" target="XFdYaOPsANe1N4QlNpXV-12" edge="1">
          <mxGeometry x="0.1193" y="-20" relative="1" as="geometry">
            <mxPoint as="offset" />
            <mxPoint x="100" y="321" as="sourcePoint" />
            <mxPoint x="100" y="361" as="targetPoint" />
          </mxGeometry>
        </mxCell>
        <mxCell id="WIyWlLk6GJQsqaUBKTNV-5" value="No" style="edgeStyle=orthogonalEdgeStyle;rounded=0;html=1;jettySize=auto;orthogonalLoop=1;fontSize=11;endArrow=block;endFill=0;endSize=8;strokeWidth=1;shadow=0;labelBackgroundColor=none;strokeColor=default;" parent="WIyWlLk6GJQsqaUBKTNV-1" source="WIyWlLk6GJQsqaUBKTNV-6" edge="1">
          <mxGeometry x="0.145" y="-10" relative="1" as="geometry">
            <mxPoint as="offset" />
            <mxPoint x="220" y="280" as="targetPoint" />
          </mxGeometry>
        </mxCell>
        <mxCell id="WIyWlLk6GJQsqaUBKTNV-6" value="&lt;font style=&quot;font-size: 10px;&quot;&gt;¿Desea ver asientos disponibles?&lt;/font&gt;" style="rhombus;whiteSpace=wrap;html=1;shadow=0;fontFamily=Helvetica;fontSize=12;align=center;strokeWidth=1;spacing=6;spacingTop=-4;" parent="WIyWlLk6GJQsqaUBKTNV-1" vertex="1">
          <mxGeometry x="50" y="240" width="100" height="80" as="geometry" />
        </mxCell>
        <mxCell id="XFdYaOPsANe1N4QlNpXV-0" value="¿Cuantos boletos desea adquirir?" style="shape=parallelogram;perimeter=parallelogramPerimeter;whiteSpace=wrap;html=1;fixedSize=1;" vertex="1" parent="WIyWlLk6GJQsqaUBKTNV-1">
          <mxGeometry x="40" y="80" width="120" height="40" as="geometry" />
        </mxCell>
        <mxCell id="XFdYaOPsANe1N4QlNpXV-5" value="" style="endArrow=classic;html=1;rounded=0;entryX=0.5;entryY=0;entryDx=0;entryDy=0;exitX=0.5;exitY=1;exitDx=0;exitDy=0;" edge="1" parent="WIyWlLk6GJQsqaUBKTNV-1" source="WIyWlLk6GJQsqaUBKTNV-3" target="XFdYaOPsANe1N4QlNpXV-0">
          <mxGeometry width="50" height="50" relative="1" as="geometry">
            <mxPoint x="90" y="50" as="sourcePoint" />
            <mxPoint x="140" y="-10" as="targetPoint" />
          </mxGeometry>
        </mxCell>
        <mxCell id="XFdYaOPsANe1N4QlNpXV-6" style="edgeStyle=orthogonalEdgeStyle;rounded=0;orthogonalLoop=1;jettySize=auto;html=1;exitX=0.5;exitY=1;exitDx=0;exitDy=0;" edge="1" parent="WIyWlLk6GJQsqaUBKTNV-1" source="XFdYaOPsANe1N4QlNpXV-0" target="XFdYaOPsANe1N4QlNpXV-0">
          <mxGeometry relative="1" as="geometry" />
        </mxCell>
        <mxCell id="XFdYaOPsANe1N4QlNpXV-7" value="cantidad = num;" style="rounded=0;whiteSpace=wrap;html=1;" vertex="1" parent="WIyWlLk6GJQsqaUBKTNV-1">
          <mxGeometry x="40" y="160" width="120" height="40" as="geometry" />
        </mxCell>
        <mxCell id="XFdYaOPsANe1N4QlNpXV-8" value="" style="endArrow=classic;html=1;rounded=0;entryX=0.5;entryY=0;entryDx=0;entryDy=0;" edge="1" parent="WIyWlLk6GJQsqaUBKTNV-1" target="XFdYaOPsANe1N4QlNpXV-7">
          <mxGeometry width="50" height="50" relative="1" as="geometry">
            <mxPoint x="100" y="120" as="sourcePoint" />
            <mxPoint x="150" y="70" as="targetPoint" />
          </mxGeometry>
        </mxCell>
        <mxCell id="XFdYaOPsANe1N4QlNpXV-10" value="" style="endArrow=classic;html=1;rounded=0;entryX=0.5;entryY=0;entryDx=0;entryDy=0;" edge="1" parent="WIyWlLk6GJQsqaUBKTNV-1">
          <mxGeometry width="50" height="50" relative="1" as="geometry">
            <mxPoint x="100" y="200" as="sourcePoint" />
            <mxPoint x="100" y="240" as="targetPoint" />
          </mxGeometry>
        </mxCell>
        <mxCell id="XFdYaOPsANe1N4QlNpXV-17" style="edgeStyle=orthogonalEdgeStyle;rounded=0;orthogonalLoop=1;jettySize=auto;html=1;exitX=0.5;exitY=1;exitDx=0;exitDy=0;entryX=1;entryY=0.5;entryDx=0;entryDy=0;" edge="1" parent="WIyWlLk6GJQsqaUBKTNV-1" source="XFdYaOPsANe1N4QlNpXV-11" target="XFdYaOPsANe1N4QlNpXV-14">
          <mxGeometry relative="1" as="geometry">
            <Array as="points">
              <mxPoint x="270" y="460" />
            </Array>
          </mxGeometry>
        </mxCell>
        <mxCell id="XFdYaOPsANe1N4QlNpXV-19" value="Yes" style="edgeLabel;html=1;align=center;verticalAlign=middle;resizable=0;points=[];" vertex="1" connectable="0" parent="XFdYaOPsANe1N4QlNpXV-17">
          <mxGeometry x="-0.44" y="-3" relative="1" as="geometry">
            <mxPoint as="offset" />
          </mxGeometry>
        </mxCell>
        <mxCell id="XFdYaOPsANe1N4QlNpXV-46" style="edgeStyle=orthogonalEdgeStyle;rounded=0;orthogonalLoop=1;jettySize=auto;html=1;exitX=0.5;exitY=0;exitDx=0;exitDy=0;entryX=1;entryY=0.5;entryDx=0;entryDy=0;" edge="1" parent="WIyWlLk6GJQsqaUBKTNV-1" source="XFdYaOPsANe1N4QlNpXV-11">
          <mxGeometry relative="1" as="geometry">
            <mxPoint x="480" y="780" as="targetPoint" />
            <Array as="points">
              <mxPoint x="270" y="220" />
              <mxPoint x="600" y="220" />
              <mxPoint x="600" y="780" />
            </Array>
          </mxGeometry>
        </mxCell>
        <mxCell id="XFdYaOPsANe1N4QlNpXV-47" value="no" style="edgeLabel;html=1;align=center;verticalAlign=middle;resizable=0;points=[];" vertex="1" connectable="0" parent="XFdYaOPsANe1N4QlNpXV-46">
          <mxGeometry x="-0.6851" y="-2" relative="1" as="geometry">
            <mxPoint as="offset" />
          </mxGeometry>
        </mxCell>
        <mxCell id="XFdYaOPsANe1N4QlNpXV-11" value="&lt;font style=&quot;font-size: 10px;&quot;&gt;¿Desea continuar comprando?&lt;/font&gt;" style="rhombus;whiteSpace=wrap;html=1;" vertex="1" parent="WIyWlLk6GJQsqaUBKTNV-1">
          <mxGeometry x="220" y="240" width="100" height="80" as="geometry" />
        </mxCell>
        <mxCell id="XFdYaOPsANe1N4QlNpXV-12" value="Mostrar asientos" style="shape=document;whiteSpace=wrap;html=1;boundedLbl=1;" vertex="1" parent="WIyWlLk6GJQsqaUBKTNV-1">
          <mxGeometry x="50" y="360" width="100" height="40" as="geometry" />
        </mxCell>
        <mxCell id="XFdYaOPsANe1N4QlNpXV-21" value="" style="edgeStyle=orthogonalEdgeStyle;rounded=0;orthogonalLoop=1;jettySize=auto;html=1;" edge="1" parent="WIyWlLk6GJQsqaUBKTNV-1" source="XFdYaOPsANe1N4QlNpXV-14" target="XFdYaOPsANe1N4QlNpXV-20">
          <mxGeometry relative="1" as="geometry" />
        </mxCell>
        <mxCell id="XFdYaOPsANe1N4QlNpXV-14" value="Ingrese fila, ingrese asiento" style="rounded=0;whiteSpace=wrap;html=1;" vertex="1" parent="WIyWlLk6GJQsqaUBKTNV-1">
          <mxGeometry x="40" y="440" width="120" height="40" as="geometry" />
        </mxCell>
        <mxCell id="XFdYaOPsANe1N4QlNpXV-15" value="" style="endArrow=classic;html=1;rounded=0;entryX=0.5;entryY=0;entryDx=0;entryDy=0;" edge="1" parent="WIyWlLk6GJQsqaUBKTNV-1" target="XFdYaOPsANe1N4QlNpXV-14">
          <mxGeometry width="50" height="50" relative="1" as="geometry">
            <mxPoint x="100" y="400" as="sourcePoint" />
            <mxPoint x="150" y="350" as="targetPoint" />
          </mxGeometry>
        </mxCell>
        <mxCell id="XFdYaOPsANe1N4QlNpXV-23" value="" style="edgeStyle=orthogonalEdgeStyle;rounded=0;orthogonalLoop=1;jettySize=auto;html=1;" edge="1" parent="WIyWlLk6GJQsqaUBKTNV-1" source="XFdYaOPsANe1N4QlNpXV-20" target="XFdYaOPsANe1N4QlNpXV-22">
          <mxGeometry relative="1" as="geometry" />
        </mxCell>
        <mxCell id="XFdYaOPsANe1N4QlNpXV-32" style="edgeStyle=orthogonalEdgeStyle;rounded=0;orthogonalLoop=1;jettySize=auto;html=1;exitX=0.5;exitY=1;exitDx=0;exitDy=0;entryX=0.5;entryY=0;entryDx=0;entryDy=0;" edge="1" parent="WIyWlLk6GJQsqaUBKTNV-1" source="XFdYaOPsANe1N4QlNpXV-20" target="XFdYaOPsANe1N4QlNpXV-30">
          <mxGeometry relative="1" as="geometry" />
        </mxCell>
        <mxCell id="XFdYaOPsANe1N4QlNpXV-20" value="&lt;font style=&quot;font-size: 10px;&quot;&gt;si fila es &amp;lt;=9 y &amp;gt; 0;&lt;br&gt;si asiento es &amp;lt;=9 y &amp;gt; 0&lt;/font&gt;" style="rhombus;whiteSpace=wrap;html=1;rounded=0;" vertex="1" parent="WIyWlLk6GJQsqaUBKTNV-1">
          <mxGeometry x="40" y="520" width="120" height="80" as="geometry" />
        </mxCell>
        <mxCell id="XFdYaOPsANe1N4QlNpXV-24" style="edgeStyle=orthogonalEdgeStyle;rounded=0;orthogonalLoop=1;jettySize=auto;html=1;exitX=1;exitY=0.5;exitDx=0;exitDy=0;entryX=1;entryY=0.5;entryDx=0;entryDy=0;" edge="1" parent="WIyWlLk6GJQsqaUBKTNV-1" source="XFdYaOPsANe1N4QlNpXV-22" target="XFdYaOPsANe1N4QlNpXV-14">
          <mxGeometry relative="1" as="geometry" />
        </mxCell>
        <mxCell id="XFdYaOPsANe1N4QlNpXV-22" value="&lt;font style=&quot;font-size: 10px;&quot;&gt;Asiento no existente, favor de intentar nuevamente&lt;/font&gt;" style="rounded=0;whiteSpace=wrap;html=1;" vertex="1" parent="WIyWlLk6GJQsqaUBKTNV-1">
          <mxGeometry x="200" y="540" width="120" height="40" as="geometry" />
        </mxCell>
        <mxCell id="XFdYaOPsANe1N4QlNpXV-35" style="edgeStyle=orthogonalEdgeStyle;rounded=0;orthogonalLoop=1;jettySize=auto;html=1;exitX=0.5;exitY=1;exitDx=0;exitDy=0;entryX=0.5;entryY=0;entryDx=0;entryDy=0;" edge="1" parent="WIyWlLk6GJQsqaUBKTNV-1" source="XFdYaOPsANe1N4QlNpXV-26" target="XFdYaOPsANe1N4QlNpXV-34">
          <mxGeometry relative="1" as="geometry" />
        </mxCell>
        <mxCell id="XFdYaOPsANe1N4QlNpXV-39" value="si" style="edgeLabel;html=1;align=center;verticalAlign=middle;resizable=0;points=[];" vertex="1" connectable="0" parent="XFdYaOPsANe1N4QlNpXV-35">
          <mxGeometry x="0.0667" y="-3" relative="1" as="geometry">
            <mxPoint as="offset" />
          </mxGeometry>
        </mxCell>
        <mxCell id="XFdYaOPsANe1N4QlNpXV-37" style="edgeStyle=orthogonalEdgeStyle;rounded=0;orthogonalLoop=1;jettySize=auto;html=1;exitX=1;exitY=0.5;exitDx=0;exitDy=0;" edge="1" parent="WIyWlLk6GJQsqaUBKTNV-1" source="XFdYaOPsANe1N4QlNpXV-26" target="XFdYaOPsANe1N4QlNpXV-36">
          <mxGeometry relative="1" as="geometry" />
        </mxCell>
        <mxCell id="XFdYaOPsANe1N4QlNpXV-38" value="no" style="edgeLabel;html=1;align=center;verticalAlign=middle;resizable=0;points=[];" vertex="1" connectable="0" parent="XFdYaOPsANe1N4QlNpXV-37">
          <mxGeometry x="-0.0444" y="3" relative="1" as="geometry">
            <mxPoint as="offset" />
          </mxGeometry>
        </mxCell>
        <mxCell id="XFdYaOPsANe1N4QlNpXV-26" value="&lt;font style=&quot;font-size: 10px;&quot;&gt;¿fue recervado correctamente?&lt;/font&gt;" style="rhombus;whiteSpace=wrap;html=1;" vertex="1" parent="WIyWlLk6GJQsqaUBKTNV-1">
          <mxGeometry x="190" y="640" width="120" height="80" as="geometry" />
        </mxCell>
        <mxCell id="XFdYaOPsANe1N4QlNpXV-33" style="edgeStyle=orthogonalEdgeStyle;rounded=0;orthogonalLoop=1;jettySize=auto;html=1;exitX=1;exitY=0.5;exitDx=0;exitDy=0;" edge="1" parent="WIyWlLk6GJQsqaUBKTNV-1" source="XFdYaOPsANe1N4QlNpXV-30" target="XFdYaOPsANe1N4QlNpXV-26">
          <mxGeometry relative="1" as="geometry" />
        </mxCell>
        <mxCell id="XFdYaOPsANe1N4QlNpXV-30" value="Mostrar asientos" style="shape=document;whiteSpace=wrap;html=1;boundedLbl=1;" vertex="1" parent="WIyWlLk6GJQsqaUBKTNV-1">
          <mxGeometry x="50" y="640" width="100" height="40" as="geometry" />
        </mxCell>
        <mxCell id="XFdYaOPsANe1N4QlNpXV-42" style="edgeStyle=orthogonalEdgeStyle;rounded=0;orthogonalLoop=1;jettySize=auto;html=1;exitX=1;exitY=0.5;exitDx=0;exitDy=0;entryX=0;entryY=0.5;entryDx=0;entryDy=0;" edge="1" parent="WIyWlLk6GJQsqaUBKTNV-1" source="XFdYaOPsANe1N4QlNpXV-34">
          <mxGeometry relative="1" as="geometry">
            <mxPoint x="360" y="780" as="targetPoint" />
          </mxGeometry>
        </mxCell>
        <mxCell id="XFdYaOPsANe1N4QlNpXV-34" value="&lt;font style=&quot;font-size: 10px;&quot;&gt;Seleccione la letra: &quot;s&quot;&lt;/font&gt;" style="shape=parallelogram;perimeter=parallelogramPerimeter;whiteSpace=wrap;html=1;fixedSize=1;" vertex="1" parent="WIyWlLk6GJQsqaUBKTNV-1">
          <mxGeometry x="200" y="760" width="120" height="40" as="geometry" />
        </mxCell>
        <mxCell id="XFdYaOPsANe1N4QlNpXV-44" style="edgeStyle=orthogonalEdgeStyle;rounded=0;orthogonalLoop=1;jettySize=auto;html=1;exitX=0.5;exitY=0;exitDx=0;exitDy=0;entryX=1;entryY=0.5;entryDx=0;entryDy=0;" edge="1" parent="WIyWlLk6GJQsqaUBKTNV-1" source="XFdYaOPsANe1N4QlNpXV-36" target="XFdYaOPsANe1N4QlNpXV-11">
          <mxGeometry relative="1" as="geometry" />
        </mxCell>
        <mxCell id="XFdYaOPsANe1N4QlNpXV-36" value="&lt;font style=&quot;font-size: 10px;&quot;&gt;Seleccione la letra: &quot;n&quot;&lt;/font&gt;" style="shape=parallelogram;perimeter=parallelogramPerimeter;whiteSpace=wrap;html=1;fixedSize=1;" vertex="1" parent="WIyWlLk6GJQsqaUBKTNV-1">
          <mxGeometry x="360" y="660" width="120" height="40" as="geometry" />
        </mxCell>
        <mxCell id="XFdYaOPsANe1N4QlNpXV-49" value="Fin" style="rounded=1;whiteSpace=wrap;html=1;" vertex="1" parent="WIyWlLk6GJQsqaUBKTNV-1">
          <mxGeometry x="360" y="760" width="120" height="40" as="geometry" />
        </mxCell>
      </root>
    </mxGraphModel>
  </diagram>
</mxfile>
